<mxfile host="app.diagrams.net" modified="2024-05-14T08:58:16.640Z" agent="Mozilla/5.0 (X11; Linux x86_64; rv:125.0) Gecko/20100101 Firefox/125.0" version="24.4.0" etag="Kem3MqxOyGQVperD8DIl" type="github">
  <diagram name="Page-1" id="3ajyc32a10Y2RwoP5x7R">
    <mxGraphModel>
      <root>
        <mxCell id="0" />
        <mxCell id="1" parent="0" />
      </root>
    </mxGraphModel>
  </diagram>
</mxfile>
